PathFileType	4	(X/Y/Z)	Kaydara																																																																																																																																																																																																																												
DataRate	CameraRate	NumFrames	NumMarkers	Units	OrigDataRate	OrigDataStartFrame	OrigNumFrames																																																																																																																																																																																																																								
60	60	4	74	mm	60	2363	226																																																																																																																																																																																																																								
Frame#	Time	N_lasi			N_rasi			N_rpsi			N_lpsi			N_fneck			N_bneck			N_fhead			N_rhead			N_lhead			N_rshld			N_relbtop			N_relbext			N_relblow			N_rwrext			N_rwrtop			N_rwrlow			N_lshld			N_lelblow			N_lelbtop			N_lwrext			N_lwrtop			N_lwrlow			N_rtopleg			N_ltopleg			N_rkneefr			N_rkneebk			N_rkneeis			N_lkneefr			N_lknssbk			N_lkneeis			N_rankfr			N_rankis			N_rankbk			N_lankfr			N_lankbk			N_lankis			D_lasi			D_rasi			D_lpsi			D_fneck			D_bneck			D_fhead			D_rhead			D_lhead			D_rshld			D_relbtop			D_relbext			D_relblow			D_rwrext			D_rwrtop			D_rwrlow			D_lshld			D_lelbext			D_lelblow			D_lelbtop			D_lwrext			D_lwrtop			D_lwrlow			D_rtopleg			D_ltopleg			D_rkneefr			D_rkneebk			D_rkneeis			D_lkneefr			D_lknssbk			D_lkneeis			D_rankfr			D_rankis			D_rankbk			D_lankfr			D_lankbk			D_lankis			D_rpsi			N_lelbext		
		X1	Y1	Z1	X2	Y2	Z2	X3	Y3	Z3	X4	Y4	Z4	X5	Y5	Z5	X6	Y6	Z6	X7	Y7	Z7	X8	Y8	Z8	X9	Y9	Z9	X10	Y10	Z10	X11	Y11	Z11	X12	Y12	Z12	X13	Y13	Z13	X14	Y14	Z14	X15	Y15	Z15	X16	Y16	Z16	X17	Y17	Z17	X18	Y18	Z18	X19	Y19	Z19	X20	Y20	Z20	X21	Y21	Z21	X22	Y22	Z22	X23	Y23	Z23	X24	Y24	Z24	X25	Y25	Z25	X26	Y26	Z26	X27	Y27	Z27	X28	Y28	Z28	X29	Y29	Z29	X30	Y30	Z30	X31	Y31	Z31	X32	Y32	Z32	X33	Y33	Z33	X34	Y34	Z34	X35	Y35	Z35	X36	Y36	Z36	X37	Y37	Z37	X38	Y38	Z38	X39	Y39	Z39	X40	Y40	Z40	X41	Y41	Z41	X42	Y42	Z42	X43	Y43	Z43	X44	Y44	Z44	X45	Y45	Z45	X46	Y46	Z46	X47	Y47	Z47	X48	Y48	Z48	X49	Y49	Z49	X50	Y50	Z50	X51	Y51	Z51	X52	Y52	Z52	X53	Y53	Z53	X54	Y54	Z54	X55	Y55	Z55	X56	Y56	Z56	X57	Y57	Z57	X58	Y58	Z58	X59	Y59	Z59	X60	Y60	Z60	X61	Y61	Z61	X62	Y62	Z62	X63	Y63	Z63	X64	Y64	Z64	X65	Y65	Z65	X66	Y66	Z66	X67	Y67	Z67	X68	Y68	Z68	X69	Y69	Z69	X70	Y70	Z70	X71	Y71	Z71	X72	Y72	Z72	X73	Y73	Z73	X74	Y74	Z74
																																																																																																																																																																																																																															
142	39.367	-516.19404	1253.94798	-81.67647	-509.07696	1263.07083	-309.63232	-244.76093	1229.69749	-365.04562	-258.22042	1227.46826	-18.3258	-374.37817	1609.33517	-182.27604	-211.88496	1663.11249	-160.37338	-460.36114	1798.18237	-196.29688	-265.02172	1777.13959	-247.81605	-320.51487	1779.20074	-101.14568	-252.1335	1638.67599	-384.53751	-244.73301	1551.76437	-650.17006	-334.36745	1530.0386	-643.30505	-291.02203	1629.73083	-637.23431	-282.60416	1583.5231	-972.3423	-323.26706	1608.04688	-976.94824	-359.34799	1578.90167	-965.9491	-232.27787	1617.29156	9.80513	-235.20449	1596.91238	270.13386	-225.0592	1510.93445	277.19822	-211.74038	1549.99237	594.23958	-237.57774	1588.84933	601.9931	-282.35937	1559.57977	596.52016	-411.20987	1060.6691	-445.9446	-355.17799	1041.11496	45.89635	-424.03229	561.7646	-259.92712	-319.26889	578.24707	-330.18181	-360.83382	564.8951	-168.19136	-376.09627	540.57411	-104.11055	-249.85683	555.49934	-43.14934	-249.47731	546.78303	-192.68625	-295.46534	139.21514	-272.11349	-297.27289	154.19474	-192.14951	-215.72269	140.42833	-216.74129	-331.54408	193.16406	-120.39988	-259.14856	185.30643	-76.62446	-265.14614	193.69728	-164.42011	-475.46761	1039.82521	1742.41974	-435.94589	1056.99013	1457.8862	-281.21735	1134.41811	1748.358	-415.07618	1567.52609	1584.64645	-275.12411	1593.88763	1592.09961	-458.96351	1772.34634	1574.90799	-296.68833	1727.18536	1496.95633	-303.20866	1736.06003	1653.59985	-310.31155	1589.2955	1495.11551	-436.40999	1704.1507	1269.0316	-475.78629	1710.73364	1330.55542	-378.10223	1740.59036	1317.79556	-494.34849	1976.39542	1290.34683	-450.43026	1980.71548	1325.74432	-485.06916	1964.26239	1365.36896	-332.44629	1558.16193	1786.39221	-435.15312	1483.05237	2001.41663	-346.36951	1480.93536	2019.03748	-402.15561	1429.93805	2055.02045	-452.45277	1709.03473	2080.84015	-408.54164	1712.59766	2079.21707	-398.41953	1706.36398	2028.96881	-342.55547	1004.49638	1413.15399	-334.43001	1010.74753	1813.35739	-376.77086	454.85516	1452.18903	-277.22416	491.67885	1424.87457	-284.6406	458.5593	1545.34515	-360.53734	448.00095	1772.51038	-248.4087	487.07443	1790.03128	-318.45119	444.74968	1681.55304	-324.75792	130.80409	1418.05862	-295.60751	127.13696	1483.24554	-244.59433	128.79297	1418.73581	-324.3177	135.24821	1793.45062	-251.40301	125.22512	1807.37411	-294.3829	124.88804	1733.83224	-253.59316	1150.49271	1531.90247	-312.08481	1527.13348	274.33496
143	39.383	-516.14166	1253.82034	-81.99394	-509.1758	1262.96005	-309.97498	-244.82897	1229.70566	-365.38517	-258.22325	1227.44347	-18.72958	-374.60686	1609.27063	-182.44091	-212.11365	1663.04794	-160.53823	-460.77042	1798.04352	-196.61295	-265.3754	1777.1312	-248.06671	-320.77755	1779.21387	-101.41394	-252.30787	1638.77243	-384.77798	-244.50884	1551.69464	-650.38475	-334.15413	1529.88373	-643.50288	-290.8395	1629.79706	-637.41508	-282.17243	1583.08899	-972.575	-322.81952	1607.71027	-977.2435	-358.99338	1578.65387	-966.2587	-232.4732	1617.28989	9.64163	-235.36329	1596.87286	269.89832	-225.16083	1510.95947	277.03531	-211.92204	1550.37354	594.05636	-237.75127	1589.1539	601.65474	-282.53048	1559.82559	596.36066	-411.31042	1060.5957	-446.34644	-355.15629	1041.05278	45.70315	-424.05338	561.76174	-260.14475	-319.32394	578.24081	-330.383	-360.82687	564.90376	-168.47025	-376.08685	540.60875	-104.22827	-249.89342	555.54489	-43.35988	-249.48725	546.82976	-192.90436	-295.42891	139.21876	-272.19069	-297.25552	154.20948	-192.26435	-215.70839	140.43273	-216.817	-331.56128	193.18466	-120.44618	-259.12743	185.34245	-76.72313	-265.14418	193.72557	-164.49261	-475.55584	1039.78851	1742.51007	-436.08566	1057.03789	1458.04321	-281.29557	1134.41536	1748.33099	-415.40977	1567.54486	1584.76563	-275.39309	1593.89435	1591.98822	-459.21513	1772.27417	1575.02213	-297.02614	1727.24976	1497.05688	-303.4301	1736.04645	1653.66821	-310.56059	1589.38553	1494.95743	-436.56868	1703.73749	1268.46306	-476.19015	1710.11765	1329.90402	-378.52543	1740.30792	1317.30606	-495.4007	1975.77011	1289.76303	-451.64097	1980.05737	1325.37659	-486.07185	1963.75244	1364.6106	-332.84611	1558.04688	1786.642	-435.05032	1482.92648	2001.54846	-346.25275	1480.85831	2019.05228	-401.9241	1429.73755	2055.21881	-452.5528	1708.81851	2081.19446	-408.57708	1712.45438	2079.60129	-398.52028	1706.22284	2029.35486	-342.68757	1004.51317	1413.12302	-334.38927	1010.86136	1813.64044	-376.8819	454.87396	1452.21893	-277.33774	491.69258	1424.84131	-284.71815	458.58986	1545.33569	-360.57724	448.06126	1772.53006	-248.43666	487.1838	1790.09689	-318.69097	444.69635	1681.71036	-324.79965	130.80983	1418.03925	-295.60692	127.13533	1483.24463	-244.64266	128.83972	1418.67081	-324.3642	135.14375	1793.51334	-251.44417	125.22033	1807.37061	-294.43819	124.88013	1733.84674	-253.69137	1150.47737	1531.92627	-312.17394	1527.04086	274.105
144	39.4	-516.15978	1253.65356	-82.33384	-509.25812	1262.85706	-310.39587	-244.92466	1229.75723	-365.7019	-258.23549	1227.39944	-19.0546	-374.77573	1609.23538	-182.63386	-212.28251	1663.0127	-160.73116	-461.15082	1797.89169	-196.80504	-265.66486	1777.03659	-248.34526	-320.96016	1779.14948	-101.77418	-252.36217	1638.8797	-384.97608	-244.19331	1551.51703	-650.6041	-333.77548	1529.60526	-643.78944	-290.48065	1629.75616	-637.62604	-281.77099	1582.75131	-972.83218	-322.36301	1607.36816	-977.53479	-358.56441	1578.21747	-966.65802	-232.74025	1617.35443	9.49368	-235.49463	1596.79153	269.71693	-225.23426	1510.9433	276.78446	-212.09949	1550.54932	593.85063	-237.84195	1589.37195	601.41842	-282.68288	1560.11581	596.20483	-411.41403	1060.54794	-446.74564	-355.1194	1040.98579	45.55629	-424.048	561.78658	-260.36776	-319.32972	578.27869	-330.64377	-360.84518	564.88815	-168.72911	-376.09703	540.60322	-104.41573	-250.00843	555.56576	-43.51989	-249.5298	546.83784	-193.10047	-295.37779	139.22033	-272.30373	-297.2715	154.2362	-192.36855	-215.69563	140.47223	-216.91849	-331.5649	193.18953	-120.48321	-259.14127	185.37369	-76.7933	-265.15291	193.74363	-164.54618	-475.61668	1039.75746	1742.61017	-436.19751	1057.05345	1458.18176	-281.39999	1134.40758	1748.34595	-415.59341	1567.52609	1584.82162	-275.58187	1593.88779	1591.98471	-459.44489	1772.22687	1575.13306	-297.33185	1727.37152	1497.27173	-303.59945	1736.00449	1653.65738	-310.81064	1589.39758	1494.78119	-436.67995	1703.14178	1268.00125	-476.60927	1709.4632	1329.30145	-378.93291	1739.92706	1316.8364	-496.32713	1974.96689	1288.95844	-452.70893	1979.23126	1324.61655	-487.52346	1962.72476	1364.15726	-333.00232	1558.03757	1786.75888	-434.99622	1482.65884	2001.63147	-346.19125	1480.75378	2019.18625	-401.73561	1429.53247	2055.30457	-452.54837	1708.52325	2081.60645	-408.61382	1712.21512	2079.99069	-398.661	1706.0434	2029.47693	-342.873	1004.54247	1413.13309	-334.38854	1010.90042	1813.79883	-376.93409	454.91867	1452.20245	-277.48632	491.69571	1424.81583	-284.82492	458.59657	1545.27267	-360.60558	448.05305	1772.51923	-248.43513	487.1904	1790.09323	-318.67222	444.6843	1681.6803	-324.85264	130.79991	1418.05618	-295.63097	127.16607	1483.23639	-244.67552	128.85873	1418.63663	-324.36283	135.14383	1793.51532	-251.47165	125.19559	1807.30789	-294.46033	124.87624	1733.85315	-253.79711	1150.5056	1531.95068	-312.22258	1526.90506	273.86953
145	39.417	-516.2323	1253.46512	-82.66007	-509.33235	1262.73972	-310.77915	-245.03872	1229.82887	-366.03039	-258.31501	1227.37892	-19.44167	-374.97734	1609.10431	-183.05492	-212.48411	1662.88177	-161.15225	-461.49666	1797.64969	-196.86121	-266.13995	1777.23145	-248.47849	-321.08505	1779.06464	-102.03462	-252.45291	1639.01657	-385.17727	-243.91987	1551.1821	-650.82497	-333.32626	1529.20029	-644.11255	-290.33945	1629.34174	-637.99797	-281.182	1582.27707	-973.1102	-321.82735	1606.87653	-977.91916	-358.0621	1577.76398	-966.95984	-232.9011	1617.44598	9.31364	-235.58372	1596.70563	269.48355	-225.20741	1510.89661	276.56107	-212.2253	1550.57159	593.72002	-237.99568	1589.41986	601.23207	-282.86978	1560.23102	596.03802	-411.47457	1060.53932	-447.13631	-355.10754	1040.94223	45.35675	-424.03202	561.80733	-260.60003	-319.29104	578.29926	-330.93987	-360.81001	564.90242	-168.96008	-376.15288	540.61237	-104.6681	-250.00183	555.58006	-43.73776	-249.59473	546.84288	-193.27581	-295.32135	139.23248	-272.45325	-297.28619	154.29674	-192.46788	-215.65514	140.45247	-216.97983	-331.55785	193.19799	-120.52732	-259.14597	185.41481	-76.88074	-265.15173	193.76842	-164.61197	-475.74123	1039.70802	1742.7446	-436.37596	1057.05322	1458.31512	-281.47858	1134.36546	1748.31985	-415.72758	1567.56134	1584.90875	-275.71264	1593.90625	1591.97021	-459.65828	1772.13837	1575.22324	-297.6479	1727.42828	1497.56699	-303.72553	1736.04767	1653.58688	-311.05841	1589.41071	1494.63623	-436.8224	1702.31552	1267.21207	-476.89919	1708.51181	1328.50723	-379.28169	1739.40552	1316.36154	-497.45201	1973.97797	1288.01437	-453.97812	1978.6319	1324.15649	-488.83614	1961.97647	1363.0658	-333.19874	1558.11981	1786.90552	-434.93931	1482.4263	2001.77689	-345.89195	1480.43686	2019.08844	-401.58211	1429.39056	2055.30609	-452.63985	1708.2785	2082.01904	-408.61385	1712.00592	2080.20996	-398.87856	1705.84717	2029.6431	-343.04165	1004.59076	1413.13324	-334.45236	1010.88181	1813.81912	-377.04033	454.91283	1452.2406	-277.58785	491.72394	1424.78012	-284.9165	458.652	1545.24261	-360.59124	448.01491	1772.52396	-248.45047	487.26727	1790.13397	-318.72232	444.68407	1681.65863	-324.88472	130.81822	1418.03329	-295.67364	127.20951	1483.26324	-244.73019	128.88844	1418.6264	-324.347	135.14814	1793.55728	-251.45636	125.21788	1807.3172	-294.44723	124.88846	1733.84857	-253.9629	1150.49637	1532.02789	-312.25086	1526.73843	273.66598
